<svg xmlns="http://www.w3.org/2000/svg" xmlns:xlink="http://www.w3.org/1999/xlink" width="1000" zoomAndPan="magnify" viewBox="0 0 750 749.999995" height="1000" preserveAspectRatio="xMidYMid meet" version="1.0"><defs><clipPath id="31bf8985d0"><path d="M 201 75 L 548 75 L 548 481 L 201 481 Z M 201 75 " clip-rule="nonzero"/></clipPath><clipPath id="b278d3d969"><path d="M 284.382812 480.75 C 300.8125 473.015625 317.363281 464.234375 333.824219 454.625 L 333.824219 480.75 Z M 355.371094 480.75 L 405.136719 480.75 L 405.136719 407.6875 C 388.890625 419.589844 372.226562 430.960938 355.371094 441.566406 Z M 426.679688 480.75 L 476.445312 480.75 L 476.445312 349.816406 C 460.683594 363.96875 443.992188 377.945312 426.679688 391.425781 Z M 497.988281 329.8125 L 497.988281 480.75 L 547.753906 480.75 L 547.753906 277.195312 C 533.203125 294.359375 516.425781 312.101562 497.988281 329.8125 Z M 201.125 480.40625 C 328.5625 441.523438 480.753906 316.628906 547.753906 223.34375 L 547.753906 75.261719 C 451.5625 369.160156 201.125 480.40625 201.125 480.40625 Z M 201.125 480.40625 " clip-rule="nonzero"/></clipPath><linearGradient x1="-18.561673" gradientTransform="matrix(1.287265, 0, 0, 1.287265, 201.126911, 75.262649)" y1="265.55605" x2="321.097322" gradientUnits="userSpaceOnUse" y2="138.045162" id="c0d7567d76"><stop stop-opacity="1" stop-color="rgb(47.44873%, 47.44873%, 47.44873%)" offset="0"/><stop stop-opacity="1" stop-color="rgb(47.44873%, 47.44873%, 47.44873%)" offset="0.25"/><stop stop-opacity="1" stop-color="rgb(47.44873%, 47.44873%, 47.44873%)" offset="0.305149"/><stop stop-opacity="1" stop-color="rgb(47.44873%, 47.44873%, 47.44873%)" offset="0.3125"/><stop stop-opacity="1" stop-color="rgb(47.44873%, 47.44873%, 47.44873%)" offset="0.328125"/><stop stop-opacity="1" stop-color="rgb(47.30835%, 47.30835%, 47.30835%)" offset="0.335938"/><stop stop-opacity="1" stop-color="rgb(46.879578%, 46.879578%, 46.879578%)" offset="0.339844"/><stop stop-opacity="1" stop-color="rgb(46.589661%, 46.589661%, 46.589661%)" offset="0.34375"/><stop stop-opacity="1" stop-color="rgb(46.299744%, 46.299744%, 46.299744%)" offset="0.347656"/><stop stop-opacity="1" stop-color="rgb(46.009827%, 46.009827%, 46.009827%)" offset="0.351562"/><stop stop-opacity="1" stop-color="rgb(45.71991%, 45.71991%, 45.71991%)" offset="0.355469"/><stop stop-opacity="1" stop-color="rgb(45.429993%, 45.429993%, 45.429993%)" offset="0.359375"/><stop stop-opacity="1" stop-color="rgb(45.140076%, 45.140076%, 45.140076%)" offset="0.363281"/><stop stop-opacity="1" stop-color="rgb(44.850159%, 44.850159%, 44.850159%)" offset="0.367188"/><stop stop-opacity="1" stop-color="rgb(44.560242%, 44.560242%, 44.560242%)" offset="0.371094"/><stop stop-opacity="1" stop-color="rgb(44.271851%, 44.271851%, 44.271851%)" offset="0.375"/><stop stop-opacity="1" stop-color="rgb(43.981934%, 43.981934%, 43.981934%)" offset="0.378906"/><stop stop-opacity="1" stop-color="rgb(43.692017%, 43.692017%, 43.692017%)" offset="0.382812"/><stop stop-opacity="1" stop-color="rgb(43.4021%, 43.4021%, 43.4021%)" offset="0.386719"/><stop stop-opacity="1" stop-color="rgb(43.112183%, 43.112183%, 43.112183%)" offset="0.390625"/><stop stop-opacity="1" stop-color="rgb(42.822266%, 42.822266%, 42.822266%)" offset="0.394531"/><stop stop-opacity="1" stop-color="rgb(42.532349%, 42.532349%, 42.532349%)" offset="0.398438"/><stop stop-opacity="1" stop-color="rgb(42.242432%, 42.242432%, 42.242432%)" offset="0.402344"/><stop stop-opacity="1" stop-color="rgb(41.952515%, 41.952515%, 41.952515%)" offset="0.40625"/><stop stop-opacity="1" stop-color="rgb(41.662598%, 41.662598%, 41.662598%)" offset="0.410156"/><stop stop-opacity="1" stop-color="rgb(41.372681%, 41.372681%, 41.372681%)" offset="0.414063"/><stop stop-opacity="1" stop-color="rgb(41.082764%, 41.082764%, 41.082764%)" offset="0.417969"/><stop stop-opacity="1" stop-color="rgb(40.792847%, 40.792847%, 40.792847%)" offset="0.421875"/><stop stop-opacity="1" stop-color="rgb(40.50293%, 40.50293%, 40.50293%)" offset="0.425781"/><stop stop-opacity="1" stop-color="rgb(40.213013%, 40.213013%, 40.213013%)" offset="0.429688"/><stop stop-opacity="1" stop-color="rgb(39.923096%, 39.923096%, 39.923096%)" offset="0.433594"/><stop stop-opacity="1" stop-color="rgb(39.633179%, 39.633179%, 39.633179%)" offset="0.4375"/><stop stop-opacity="1" stop-color="rgb(39.343262%, 39.343262%, 39.343262%)" offset="0.441406"/><stop stop-opacity="1" stop-color="rgb(39.053345%, 39.053345%, 39.053345%)" offset="0.445313"/><stop stop-opacity="1" stop-color="rgb(38.763428%, 38.763428%, 38.763428%)" offset="0.449219"/><stop stop-opacity="1" stop-color="rgb(38.473511%, 38.473511%, 38.473511%)" offset="0.453125"/><stop stop-opacity="1" stop-color="rgb(38.183594%, 38.183594%, 38.183594%)" offset="0.457031"/><stop stop-opacity="1" stop-color="rgb(37.893677%, 37.893677%, 37.893677%)" offset="0.460937"/><stop stop-opacity="1" stop-color="rgb(37.60376%, 37.60376%, 37.60376%)" offset="0.464844"/><stop stop-opacity="1" stop-color="rgb(37.313843%, 37.313843%, 37.313843%)" offset="0.46875"/><stop stop-opacity="1" stop-color="rgb(37.023926%, 37.023926%, 37.023926%)" offset="0.472656"/><stop stop-opacity="1" stop-color="rgb(36.734009%, 36.734009%, 36.734009%)" offset="0.476563"/><stop stop-opacity="1" stop-color="rgb(36.444092%, 36.444092%, 36.444092%)" offset="0.480469"/><stop stop-opacity="1" stop-color="rgb(36.154175%, 36.154175%, 36.154175%)" offset="0.484375"/><stop stop-opacity="1" stop-color="rgb(35.864258%, 35.864258%, 35.864258%)" offset="0.488281"/><stop stop-opacity="1" stop-color="rgb(35.574341%, 35.574341%, 35.574341%)" offset="0.492187"/><stop stop-opacity="1" stop-color="rgb(35.284424%, 35.284424%, 35.284424%)" offset="0.496094"/><stop stop-opacity="1" stop-color="rgb(34.994507%, 34.994507%, 34.994507%)" offset="0.5"/><stop stop-opacity="1" stop-color="rgb(34.70459%, 34.70459%, 34.70459%)" offset="0.503906"/><stop stop-opacity="1" stop-color="rgb(34.414673%, 34.414673%, 34.414673%)" offset="0.507812"/><stop stop-opacity="1" stop-color="rgb(34.124756%, 34.124756%, 34.124756%)" offset="0.511719"/><stop stop-opacity="1" stop-color="rgb(33.834839%, 33.834839%, 33.834839%)" offset="0.515625"/><stop stop-opacity="1" stop-color="rgb(33.544922%, 33.544922%, 33.544922%)" offset="0.519531"/><stop stop-opacity="1" stop-color="rgb(33.255005%, 33.255005%, 33.255005%)" offset="0.523437"/><stop stop-opacity="1" stop-color="rgb(32.965088%, 32.965088%, 32.965088%)" offset="0.527344"/><stop stop-opacity="1" stop-color="rgb(32.675171%, 32.675171%, 32.675171%)" offset="0.53125"/><stop stop-opacity="1" stop-color="rgb(32.385254%, 32.385254%, 32.385254%)" offset="0.535156"/><stop stop-opacity="1" stop-color="rgb(32.095337%, 32.095337%, 32.095337%)" offset="0.539062"/><stop stop-opacity="1" stop-color="rgb(31.80542%, 31.80542%, 31.80542%)" offset="0.542969"/><stop stop-opacity="1" stop-color="rgb(31.515503%, 31.515503%, 31.515503%)" offset="0.546875"/><stop stop-opacity="1" stop-color="rgb(31.225586%, 31.225586%, 31.225586%)" offset="0.550781"/><stop stop-opacity="1" stop-color="rgb(30.935669%, 30.935669%, 30.935669%)" offset="0.554687"/><stop stop-opacity="1" stop-color="rgb(30.645752%, 30.645752%, 30.645752%)" offset="0.558594"/><stop stop-opacity="1" stop-color="rgb(30.355835%, 30.355835%, 30.355835%)" offset="0.5625"/><stop stop-opacity="1" stop-color="rgb(30.065918%, 30.065918%, 30.065918%)" offset="0.566406"/><stop stop-opacity="1" stop-color="rgb(29.776001%, 29.776001%, 29.776001%)" offset="0.570312"/><stop stop-opacity="1" stop-color="rgb(29.486084%, 29.486084%, 29.486084%)" offset="0.574219"/><stop stop-opacity="1" stop-color="rgb(29.196167%, 29.196167%, 29.196167%)" offset="0.578125"/><stop stop-opacity="1" stop-color="rgb(28.90625%, 28.90625%, 28.90625%)" offset="0.582031"/><stop stop-opacity="1" stop-color="rgb(28.616333%, 28.616333%, 28.616333%)" offset="0.585937"/><stop stop-opacity="1" stop-color="rgb(28.326416%, 28.326416%, 28.326416%)" offset="0.589844"/><stop stop-opacity="1" stop-color="rgb(28.036499%, 28.036499%, 28.036499%)" offset="0.59375"/><stop stop-opacity="1" stop-color="rgb(27.746582%, 27.746582%, 27.746582%)" offset="0.597656"/><stop stop-opacity="1" stop-color="rgb(27.456665%, 27.456665%, 27.456665%)" offset="0.601562"/><stop stop-opacity="1" stop-color="rgb(27.166748%, 27.166748%, 27.166748%)" offset="0.605469"/><stop stop-opacity="1" stop-color="rgb(26.876831%, 26.876831%, 26.876831%)" offset="0.609375"/><stop stop-opacity="1" stop-color="rgb(26.586914%, 26.586914%, 26.586914%)" offset="0.613281"/><stop stop-opacity="1" stop-color="rgb(26.296997%, 26.296997%, 26.296997%)" offset="0.617187"/><stop stop-opacity="1" stop-color="rgb(26.00708%, 26.00708%, 26.00708%)" offset="0.621094"/><stop stop-opacity="1" stop-color="rgb(25.717163%, 25.717163%, 25.717163%)" offset="0.625"/><stop stop-opacity="1" stop-color="rgb(25.427246%, 25.427246%, 25.427246%)" offset="0.628906"/><stop stop-opacity="1" stop-color="rgb(25.137329%, 25.137329%, 25.137329%)" offset="0.632812"/><stop stop-opacity="1" stop-color="rgb(24.847412%, 24.847412%, 24.847412%)" offset="0.636719"/><stop stop-opacity="1" stop-color="rgb(24.557495%, 24.557495%, 24.557495%)" offset="0.640625"/><stop stop-opacity="1" stop-color="rgb(24.267578%, 24.267578%, 24.267578%)" offset="0.644531"/><stop stop-opacity="1" stop-color="rgb(23.977661%, 23.977661%, 23.977661%)" offset="0.648437"/><stop stop-opacity="1" stop-color="rgb(23.687744%, 23.687744%, 23.687744%)" offset="0.652344"/><stop stop-opacity="1" stop-color="rgb(23.397827%, 23.397827%, 23.397827%)" offset="0.65625"/><stop stop-opacity="1" stop-color="rgb(23.10791%, 23.10791%, 23.10791%)" offset="0.660156"/><stop stop-opacity="1" stop-color="rgb(22.817993%, 22.817993%, 22.817993%)" offset="0.664062"/><stop stop-opacity="1" stop-color="rgb(22.528076%, 22.528076%, 22.528076%)" offset="0.667969"/><stop stop-opacity="1" stop-color="rgb(22.238159%, 22.238159%, 22.238159%)" offset="0.671875"/><stop stop-opacity="1" stop-color="rgb(21.948242%, 21.948242%, 21.948242%)" offset="0.675781"/><stop stop-opacity="1" stop-color="rgb(21.658325%, 21.658325%, 21.658325%)" offset="0.679687"/><stop stop-opacity="1" stop-color="rgb(21.368408%, 21.368408%, 21.368408%)" offset="0.683594"/><stop stop-opacity="1" stop-color="rgb(21.078491%, 21.078491%, 21.078491%)" offset="0.6875"/><stop stop-opacity="1" stop-color="rgb(20.788574%, 20.788574%, 20.788574%)" offset="0.691406"/><stop stop-opacity="1" stop-color="rgb(20.498657%, 20.498657%, 20.498657%)" offset="0.695312"/><stop stop-opacity="1" stop-color="rgb(20.20874%, 20.20874%, 20.20874%)" offset="0.699219"/><stop stop-opacity="1" stop-color="rgb(19.918823%, 19.918823%, 19.918823%)" offset="0.703125"/><stop stop-opacity="1" stop-color="rgb(19.628906%, 19.628906%, 19.628906%)" offset="0.707031"/><stop stop-opacity="1" stop-color="rgb(19.338989%, 19.338989%, 19.338989%)" offset="0.710937"/><stop stop-opacity="1" stop-color="rgb(19.049072%, 19.049072%, 19.049072%)" offset="0.714844"/><stop stop-opacity="1" stop-color="rgb(18.759155%, 18.759155%, 18.759155%)" offset="0.71875"/><stop stop-opacity="1" stop-color="rgb(18.469238%, 18.469238%, 18.469238%)" offset="0.722656"/><stop stop-opacity="1" stop-color="rgb(18.179321%, 18.179321%, 18.179321%)" offset="0.726562"/><stop stop-opacity="1" stop-color="rgb(17.889404%, 17.889404%, 17.889404%)" offset="0.730469"/><stop stop-opacity="1" stop-color="rgb(17.599487%, 17.599487%, 17.599487%)" offset="0.734375"/><stop stop-opacity="1" stop-color="rgb(17.30957%, 17.30957%, 17.30957%)" offset="0.738281"/><stop stop-opacity="1" stop-color="rgb(17.019653%, 17.019653%, 17.019653%)" offset="0.742188"/><stop stop-opacity="1" stop-color="rgb(16.729736%, 16.729736%, 16.729736%)" offset="0.746094"/><stop stop-opacity="1" stop-color="rgb(16.439819%, 16.439819%, 16.439819%)" offset="0.75"/><stop stop-opacity="1" stop-color="rgb(16.149902%, 16.149902%, 16.149902%)" offset="0.753906"/><stop stop-opacity="1" stop-color="rgb(15.859985%, 15.859985%, 15.859985%)" offset="0.757812"/><stop stop-opacity="1" stop-color="rgb(15.570068%, 15.570068%, 15.570068%)" offset="0.761719"/><stop stop-opacity="1" stop-color="rgb(15.280151%, 15.280151%, 15.280151%)" offset="0.765625"/><stop stop-opacity="1" stop-color="rgb(14.990234%, 14.990234%, 14.990234%)" offset="0.769531"/><stop stop-opacity="1" stop-color="rgb(14.700317%, 14.700317%, 14.700317%)" offset="0.773438"/><stop stop-opacity="1" stop-color="rgb(14.4104%, 14.4104%, 14.4104%)" offset="0.777344"/><stop stop-opacity="1" stop-color="rgb(14.120483%, 14.120483%, 14.120483%)" offset="0.78125"/><stop stop-opacity="1" stop-color="rgb(13.830566%, 13.830566%, 13.830566%)" offset="0.785156"/><stop stop-opacity="1" stop-color="rgb(13.540649%, 13.540649%, 13.540649%)" offset="0.789063"/><stop stop-opacity="1" stop-color="rgb(13.250732%, 13.250732%, 13.250732%)" offset="0.792969"/><stop stop-opacity="1" stop-color="rgb(12.960815%, 12.960815%, 12.960815%)" offset="0.796875"/><stop stop-opacity="1" stop-color="rgb(12.670898%, 12.670898%, 12.670898%)" offset="0.800781"/><stop stop-opacity="1" stop-color="rgb(12.380981%, 12.380981%, 12.380981%)" offset="0.804688"/><stop stop-opacity="1" stop-color="rgb(12.091064%, 12.091064%, 12.091064%)" offset="0.808594"/><stop stop-opacity="1" stop-color="rgb(11.801147%, 11.801147%, 11.801147%)" offset="0.8125"/><stop stop-opacity="1" stop-color="rgb(11.51123%, 11.51123%, 11.51123%)" offset="0.816406"/><stop stop-opacity="1" stop-color="rgb(11.221313%, 11.221313%, 11.221313%)" offset="0.820313"/><stop stop-opacity="1" stop-color="rgb(10.931396%, 10.931396%, 10.931396%)" offset="0.824219"/><stop stop-opacity="1" stop-color="rgb(10.641479%, 10.641479%, 10.641479%)" offset="0.828125"/><stop stop-opacity="1" stop-color="rgb(10.351562%, 10.351562%, 10.351562%)" offset="0.832031"/><stop stop-opacity="1" stop-color="rgb(10.061646%, 10.061646%, 10.061646%)" offset="0.835938"/><stop stop-opacity="1" stop-color="rgb(9.771729%, 9.771729%, 9.771729%)" offset="0.839844"/><stop stop-opacity="1" stop-color="rgb(9.481812%, 9.481812%, 9.481812%)" offset="0.84375"/><stop stop-opacity="1" stop-color="rgb(9.191895%, 9.191895%, 9.191895%)" offset="0.847656"/><stop stop-opacity="1" stop-color="rgb(8.901978%, 8.901978%, 8.901978%)" offset="0.851563"/><stop stop-opacity="1" stop-color="rgb(8.612061%, 8.612061%, 8.612061%)" offset="0.855469"/><stop stop-opacity="1" stop-color="rgb(8.322144%, 8.322144%, 8.322144%)" offset="0.859375"/><stop stop-opacity="1" stop-color="rgb(8.032227%, 8.032227%, 8.032227%)" offset="0.863281"/><stop stop-opacity="1" stop-color="rgb(7.74231%, 7.74231%, 7.74231%)" offset="0.867188"/><stop stop-opacity="1" stop-color="rgb(7.452393%, 7.452393%, 7.452393%)" offset="0.871094"/><stop stop-opacity="1" stop-color="rgb(7.162476%, 7.162476%, 7.162476%)" offset="0.875"/><stop stop-opacity="1" stop-color="rgb(6.872559%, 6.872559%, 6.872559%)" offset="0.878906"/><stop stop-opacity="1" stop-color="rgb(6.582642%, 6.582642%, 6.582642%)" offset="0.882813"/><stop stop-opacity="1" stop-color="rgb(6.292725%, 6.292725%, 6.292725%)" offset="0.886719"/><stop stop-opacity="1" stop-color="rgb(6.002808%, 6.002808%, 6.002808%)" offset="0.890625"/><stop stop-opacity="1" stop-color="rgb(5.712891%, 5.712891%, 5.712891%)" offset="0.894531"/><stop stop-opacity="1" stop-color="rgb(5.422974%, 5.422974%, 5.422974%)" offset="0.898438"/><stop stop-opacity="1" stop-color="rgb(5.133057%, 5.133057%, 5.133057%)" offset="0.902344"/><stop stop-opacity="1" stop-color="rgb(4.84314%, 4.84314%, 4.84314%)" offset="0.90625"/><stop stop-opacity="1" stop-color="rgb(4.553223%, 4.553223%, 4.553223%)" offset="0.910156"/><stop stop-opacity="1" stop-color="rgb(4.263306%, 4.263306%, 4.263306%)" offset="0.914063"/><stop stop-opacity="1" stop-color="rgb(3.973389%, 3.973389%, 3.973389%)" offset="0.917969"/><stop stop-opacity="1" stop-color="rgb(3.683472%, 3.683472%, 3.683472%)" offset="0.921875"/><stop stop-opacity="1" stop-color="rgb(3.393555%, 3.393555%, 3.393555%)" offset="0.925781"/><stop stop-opacity="1" stop-color="rgb(3.103638%, 3.103638%, 3.103638%)" offset="0.929688"/><stop stop-opacity="1" stop-color="rgb(2.813721%, 2.813721%, 2.813721%)" offset="0.933594"/><stop stop-opacity="1" stop-color="rgb(2.523804%, 2.523804%, 2.523804%)" offset="0.9375"/><stop stop-opacity="1" stop-color="rgb(2.233887%, 2.233887%, 2.233887%)" offset="0.941406"/><stop stop-opacity="1" stop-color="rgb(1.94397%, 1.94397%, 1.94397%)" offset="0.945313"/><stop stop-opacity="1" stop-color="rgb(1.654053%, 1.654053%, 1.654053%)" offset="0.949219"/><stop stop-opacity="1" stop-color="rgb(1.364136%, 1.364136%, 1.364136%)" offset="0.953125"/><stop stop-opacity="1" stop-color="rgb(1.074219%, 1.074219%, 1.074219%)" offset="0.957031"/><stop stop-opacity="1" stop-color="rgb(0.784302%, 0.784302%, 0.784302%)" offset="0.960938"/><stop stop-opacity="1" stop-color="rgb(0.494385%, 0.494385%, 0.494385%)" offset="0.964844"/><stop stop-opacity="1" stop-color="rgb(0.204468%, 0.204468%, 0.204468%)" offset="0.96875"/><stop stop-opacity="1" stop-color="rgb(0.102234%, 0.102234%, 0.102234%)" offset="1"/></linearGradient><clipPath id="24478eb920"><path d="M 147.722656 494 L 602.222656 494 L 602.222656 561 L 147.722656 561 Z M 147.722656 494 " clip-rule="nonzero"/></clipPath><clipPath id="308b1489ed"><path d="M 242 592 L 510 592 L 510 621.75 L 242 621.75 Z M 242 592 " clip-rule="nonzero"/></clipPath></defs><g clip-path="url(#31bf8985d0)"><g clip-path="url(#b278d3d969)"><path fill="url(#c0d7567d76)" d="M 201.125 75.261719 L 201.125 480.75 L 547.753906 480.75 L 547.753906 75.261719 Z M 201.125 75.261719 " fill-rule="nonzero"/></g></g><g clip-path="url(#24478eb920)"><path fill="#797979" d="M 207.210938 494.667969 L 190.816406 494.667969 L 190.816406 532.292969 C 190.816406 541.097656 185.53125 546.472656 177.746094 546.472656 C 169.871094 546.472656 164.21875 541.097656 164.21875 532.292969 L 164.21875 494.667969 L 147.722656 494.667969 L 147.722656 532.292969 C 147.722656 549.433594 159.394531 560.28125 177.652344 560.28125 C 195.8125 560.28125 207.210938 549.433594 207.210938 532.292969 Z M 219.074219 494.667969 L 219.074219 559.535156 L 235.570312 559.535156 L 235.570312 541.285156 L 247.34375 541.285156 C 263.929688 541.285156 273.476562 532.476562 273.476562 517.277344 C 273.476562 502.824219 263.929688 494.667969 247.34375 494.667969 Z M 235.570312 507.640625 L 246.507812 507.640625 C 253.738281 507.640625 257.90625 511.074219 257.90625 517.839844 C 257.90625 524.699219 253.738281 528.304688 246.507812 528.304688 L 235.570312 528.304688 Z M 312.492188 494.113281 C 292.753906 494.113281 277.828125 508.203125 277.828125 526.917969 C 277.828125 545.917969 292.378906 560.28125 311.929688 560.28125 C 321.476562 560.28125 331.765625 555.554688 338.714844 548.417969 L 329.078125 538.226562 C 324.535156 542.859375 318.234375 545.828125 312.765625 545.828125 C 302.480469 545.828125 294.695312 537.578125 294.695312 526.734375 C 294.695312 516.078125 302.480469 507.921875 312.765625 507.921875 C 318.515625 507.921875 324.816406 511.164062 329.078125 516.351562 L 338.625 505.050781 C 332.132812 498.375 322.128906 494.113281 312.492188 494.113281 Z M 404.601562 494.667969 L 388.203125 494.667969 L 388.203125 532.292969 C 388.203125 541.097656 382.917969 546.472656 375.132812 546.472656 C 367.257812 546.472656 361.605469 541.097656 361.605469 532.292969 L 361.605469 494.667969 L 345.109375 494.667969 L 345.109375 532.292969 C 345.109375 549.433594 356.785156 560.28125 375.042969 560.28125 C 393.210938 560.28125 404.601562 549.433594 404.601562 532.292969 Z M 455.570312 559.535156 L 474.289062 559.535156 L 460.671875 538.132812 C 468.269531 534.335938 472.4375 527.199219 472.4375 517.277344 C 472.4375 502.824219 462.617188 494.667969 445.46875 494.667969 L 416.464844 494.667969 L 416.464844 559.535156 L 432.960938 559.535156 L 432.960938 541.285156 L 445.929688 541.285156 Z M 432.960938 528.304688 L 432.960938 507.640625 L 445.46875 507.640625 C 452.609375 507.640625 456.777344 511.074219 456.777344 517.839844 C 456.777344 524.699219 452.609375 528.304688 445.46875 528.304688 Z M 518.589844 559.535156 L 544.070312 494.667969 L 527.113281 494.667969 L 510.523438 542.394531 L 493.9375 494.667969 L 476.332031 494.667969 L 501.539062 559.535156 Z M 601.253906 507.640625 L 601.253906 494.667969 L 550.464844 494.667969 L 550.464844 559.535156 L 602.269531 559.535156 L 602.269531 546.5625 L 566.960938 546.5625 L 566.960938 533.5 L 597.917969 533.5 L 597.917969 520.519531 L 566.960938 520.519531 L 566.960938 507.640625 Z M 601.253906 507.640625 " fill-opacity="1" fill-rule="nonzero"/></g><g clip-path="url(#308b1489ed)"><path fill="#797979" d="M 256.953125 621.195312 C 254.175781 621.195312 251.667969 620.578125 249.433594 619.347656 C 247.195312 618.113281 245.441406 616.417969 244.171875 614.261719 C 242.898438 612.105469 242.261719 609.675781 242.261719 606.972656 C 242.261719 604.277344 242.898438 601.847656 244.171875 599.691406 C 245.441406 597.53125 247.199219 595.835938 249.449219 594.605469 C 251.699219 593.375 254.214844 592.761719 256.996094 592.761719 C 259.167969 592.761719 261.152344 593.125 262.953125 593.851562 C 264.753906 594.582031 266.292969 595.660156 267.558594 597.085938 L 264.980469 599.59375 C 262.890625 597.394531 260.28125 596.292969 257.152344 596.292969 C 255.089844 596.292969 253.226562 596.757812 251.558594 597.683594 C 249.890625 598.609375 248.585938 599.886719 247.648438 601.511719 C 246.703125 603.144531 246.234375 604.964844 246.234375 606.972656 C 246.234375 608.984375 246.703125 610.804688 247.648438 612.433594 C 248.585938 614.066406 249.890625 615.34375 251.558594 616.273438 C 253.226562 617.199219 255.089844 617.660156 257.152344 617.660156 C 260.253906 617.660156 262.859375 616.546875 264.980469 614.320312 L 267.558594 616.824219 C 266.292969 618.253906 264.75 619.339844 262.9375 620.078125 C 261.121094 620.820312 259.128906 621.195312 256.953125 621.195312 Z M 285.785156 621.195312 C 282.976562 621.195312 280.449219 620.578125 278.199219 619.347656 C 275.949219 618.113281 274.183594 616.414062 272.902344 614.246094 C 271.621094 612.070312 270.976562 609.648438 270.976562 606.972656 C 270.976562 604.304688 271.621094 601.882812 272.902344 599.710938 C 274.183594 597.535156 275.949219 595.835938 278.199219 594.605469 C 280.449219 593.375 282.976562 592.761719 285.785156 592.761719 C 288.566406 592.761719 291.078125 593.375 293.328125 594.605469 C 295.578125 595.835938 297.34375 597.53125 298.617188 599.691406 C 299.882812 601.847656 300.519531 604.277344 300.519531 606.972656 C 300.519531 609.675781 299.882812 612.105469 298.617188 614.261719 C 297.34375 616.417969 295.578125 618.113281 293.328125 619.347656 C 291.078125 620.578125 288.566406 621.195312 285.785156 621.195312 Z M 285.785156 617.660156 C 287.824219 617.660156 289.660156 617.199219 291.285156 616.273438 C 292.914062 615.34375 294.199219 614.066406 295.140625 612.433594 C 296.078125 610.804688 296.546875 608.984375 296.546875 606.972656 C 296.546875 604.964844 296.078125 603.144531 295.140625 601.511719 C 294.199219 599.886719 292.914062 598.609375 291.285156 597.683594 C 289.660156 596.757812 287.824219 596.292969 285.785156 596.292969 C 283.75 596.292969 281.90625 596.757812 280.25 597.683594 C 278.597656 598.609375 277.296875 599.886719 276.355469 601.511719 C 275.417969 603.144531 274.949219 604.964844 274.949219 606.972656 C 274.949219 608.984375 275.417969 610.804688 276.355469 612.433594 C 277.296875 614.066406 278.597656 615.34375 280.25 616.273438 C 281.90625 617.199219 283.75 617.660156 285.785156 617.660156 Z M 306.589844 620.871094 L 306.589844 593.074219 L 309.851562 593.074219 L 326.527344 613.804688 L 326.527344 593.074219 L 330.5 593.074219 L 330.5 620.871094 L 327.238281 620.871094 L 310.5625 600.148438 L 310.5625 620.871094 Z M 346.9375 621.195312 C 344.847656 621.195312 342.828125 620.867188 340.882812 620.21875 C 338.933594 619.574219 337.40625 618.730469 336.296875 617.695312 L 337.761719 614.601562 C 338.820312 615.554688 340.179688 616.328125 341.832031 616.925781 C 343.488281 617.519531 345.1875 617.820312 346.9375 617.820312 C 349.242188 617.820312 350.964844 617.425781 352.097656 616.644531 C 353.242188 615.867188 353.8125 614.828125 353.8125 613.523438 C 353.8125 612.578125 353.5 611.804688 352.878906 611.207031 C 352.253906 610.613281 351.484375 610.15625 350.570312 609.835938 C 349.660156 609.515625 348.367188 609.15625 346.695312 608.761719 C 344.605469 608.257812 342.917969 607.757812 341.632812 607.253906 C 340.355469 606.753906 339.257812 605.976562 338.339844 604.929688 C 337.425781 603.886719 336.96875 602.476562 336.96875 600.703125 C 336.96875 599.21875 337.359375 597.882812 338.144531 596.691406 C 338.925781 595.5 340.113281 594.546875 341.699219 593.835938 C 343.289062 593.117188 345.261719 592.761719 347.617188 592.761719 C 349.253906 592.761719 350.867188 592.972656 352.457031 593.398438 C 354.042969 593.820312 355.410156 594.429688 356.550781 595.226562 L 355.234375 598.402344 C 354.070312 597.65625 352.828125 597.09375 351.503906 596.714844 C 350.179688 596.328125 348.882812 596.136719 347.617188 596.136719 C 345.367188 596.136719 343.675781 596.546875 342.550781 597.367188 C 341.425781 598.191406 340.863281 599.25 340.863281 600.546875 C 340.863281 601.5 341.183594 602.273438 341.816406 602.871094 C 342.449219 603.464844 343.238281 603.929688 344.183594 604.257812 C 345.121094 604.589844 346.398438 604.941406 348.011719 605.308594 C 350.101562 605.8125 351.78125 606.3125 353.050781 606.816406 C 354.324219 607.316406 355.417969 608.085938 356.328125 609.125 C 357.242188 610.15625 357.699219 611.546875 357.699219 613.292969 C 357.699219 614.75 357.304688 616.078125 356.507812 617.28125 C 355.714844 618.484375 354.507812 619.4375 352.894531 620.144531 C 351.277344 620.84375 349.292969 621.195312 346.9375 621.195312 Z M 363.257812 608.882812 L 363.257812 593.074219 L 367.230469 593.074219 L 367.230469 608.726562 C 367.230469 614.683594 369.839844 617.660156 375.054688 617.660156 C 377.621094 617.660156 379.574219 616.933594 380.914062 615.476562 C 382.25 614.019531 382.914062 611.769531 382.914062 608.726562 L 382.914062 593.074219 L 386.769531 593.074219 L 386.769531 608.882812 C 386.769531 612.90625 385.746094 615.960938 383.691406 618.058594 C 381.640625 620.148438 378.75 621.195312 375.015625 621.195312 C 371.28125 621.195312 368.386719 620.140625 366.335938 618.035156 C 364.285156 615.933594 363.257812 612.882812 363.257812 608.882812 Z M 394.910156 620.871094 L 394.910156 593.074219 L 398.882812 593.074219 L 398.882812 617.421875 L 413.929688 617.421875 L 413.929688 620.871094 Z M 414.484375 596.53125 L 414.484375 593.074219 L 437.472656 593.074219 L 437.472656 596.53125 L 427.945312 596.53125 L 427.945312 620.871094 L 424.015625 620.871094 L 424.015625 596.53125 Z M 441.800781 620.871094 L 441.800781 593.074219 L 445.773438 593.074219 L 445.773438 620.871094 Z M 454.109375 620.871094 L 454.109375 593.074219 L 457.371094 593.074219 L 474.046875 613.804688 L 474.046875 593.074219 L 478.019531 593.074219 L 478.019531 620.871094 L 474.757812 620.871094 L 458.082031 600.148438 L 458.082031 620.871094 Z M 505.617188 615.875 L 505.617188 606.816406 L 509.429688 606.816406 L 509.429688 617.660156 C 508.050781 618.796875 506.449219 619.667969 504.625 620.277344 C 502.796875 620.886719 500.894531 621.195312 498.90625 621.195312 C 496.101562 621.195312 493.570312 620.578125 491.320312 619.347656 C 489.070312 618.113281 487.304688 616.417969 486.019531 614.261719 C 484.734375 612.105469 484.089844 609.675781 484.089844 606.972656 C 484.089844 604.277344 484.734375 601.839844 486.019531 599.667969 C 487.304688 597.5 489.078125 595.808594 491.339844 594.589844 C 493.605469 593.371094 496.152344 592.761719 498.980469 592.761719 C 501.210938 592.761719 503.230469 593.125 505.039062 593.851562 C 506.851562 594.582031 508.398438 595.644531 509.671875 597.046875 L 507.207031 599.511719 C 504.984375 597.367188 502.296875 596.292969 499.148438 596.292969 C 497.03125 596.292969 495.128906 596.75 493.449219 597.667969 C 491.765625 598.574219 490.449219 599.847656 489.492188 601.480469 C 488.539062 603.105469 488.0625 604.9375 488.0625 606.972656 C 488.0625 608.984375 488.539062 610.804688 489.492188 612.433594 C 490.449219 614.066406 491.765625 615.34375 493.449219 616.273438 C 495.128906 617.199219 497.015625 617.660156 499.105469 617.660156 C 501.59375 617.660156 503.765625 617.066406 505.617188 615.875 Z M 505.617188 615.875 " fill-opacity="1" fill-rule="nonzero"/></g></svg>